<mxfile host="Electron" modified="2024-01-26T07:16:39.973Z" agent="Mozilla/5.0 (Windows NT 10.0; Win64; x64) AppleWebKit/537.36 (KHTML, like Gecko) draw.io/22.1.2 Chrome/114.0.5735.289 Electron/25.9.4 Safari/537.36" etag="m9-ecZFeSnogb9jcpqO0" version="22.1.2" type="device">
  <diagram name="Page-1" id="3-aed6hbVGKy7FJG1bq_">
    <mxGraphModel dx="1036" dy="605" grid="0" gridSize="10" guides="1" tooltips="1" connect="1" arrows="1" fold="1" page="1" pageScale="1" pageWidth="827" pageHeight="1169" math="0" shadow="0">
      <root>
        <mxCell id="0" />
        <mxCell id="1" parent="0" />
        <mxCell id="wYwZV7qoNed92lED-Qbd-1" value="User:" style="shape=umlLifeline;perimeter=lifelinePerimeter;whiteSpace=wrap;html=1;container=1;dropTarget=0;collapsible=0;recursiveResize=0;outlineConnect=0;portConstraint=eastwest;newEdgeStyle={&quot;curved&quot;:0,&quot;rounded&quot;:0};participant=umlActor;fillColor=#99CCFF;strokeColor=#6c8ebf;" vertex="1" parent="1">
          <mxGeometry x="131" y="63" width="25" height="315" as="geometry" />
        </mxCell>
        <mxCell id="wYwZV7qoNed92lED-Qbd-2" value="System:&amp;nbsp;" style="shape=umlLifeline;perimeter=lifelinePerimeter;whiteSpace=wrap;html=1;container=1;dropTarget=0;collapsible=0;recursiveResize=0;outlineConnect=0;portConstraint=eastwest;newEdgeStyle={&quot;curved&quot;:0,&quot;rounded&quot;:0};fillColor=#99CCFF;strokeColor=#6c8ebf;" vertex="1" parent="1">
          <mxGeometry x="345" y="63" width="100" height="320" as="geometry" />
        </mxCell>
        <mxCell id="wYwZV7qoNed92lED-Qbd-3" value="" style="html=1;points=[[0,0,0,0,5],[0,1,0,0,-5],[1,0,0,0,5],[1,1,0,0,-5]];perimeter=orthogonalPerimeter;outlineConnect=0;targetShapes=umlLifeline;portConstraint=eastwest;newEdgeStyle={&quot;curved&quot;:0,&quot;rounded&quot;:0};fillColor=#99CCFF;strokeColor=#6c8ebf;" vertex="1" parent="wYwZV7qoNed92lED-Qbd-2">
          <mxGeometry x="45" y="68" width="10" height="218" as="geometry" />
        </mxCell>
        <mxCell id="wYwZV7qoNed92lED-Qbd-12" value="computer vision&lt;br&gt;process" style="html=1;align=left;spacingLeft=2;endArrow=block;rounded=0;edgeStyle=orthogonalEdgeStyle;curved=0;rounded=0;" edge="1" parent="wYwZV7qoNed92lED-Qbd-2">
          <mxGeometry relative="1" as="geometry">
            <mxPoint x="55" y="141" as="sourcePoint" />
            <Array as="points">
              <mxPoint x="90" y="141" />
              <mxPoint x="90" y="171" />
            </Array>
            <mxPoint x="55" y="171" as="targetPoint" />
          </mxGeometry>
        </mxCell>
        <mxCell id="wYwZV7qoNed92lED-Qbd-4" value="Database:" style="shape=umlLifeline;perimeter=lifelinePerimeter;whiteSpace=wrap;html=1;container=1;dropTarget=0;collapsible=0;recursiveResize=0;outlineConnect=0;portConstraint=eastwest;newEdgeStyle={&quot;curved&quot;:0,&quot;rounded&quot;:0};fillColor=#99CCFF;strokeColor=#6c8ebf;" vertex="1" parent="1">
          <mxGeometry x="596" y="63" width="100" height="325" as="geometry" />
        </mxCell>
        <mxCell id="wYwZV7qoNed92lED-Qbd-5" value="" style="html=1;points=[[0,0,0,0,5],[0,1,0,0,-5],[1,0,0,0,5],[1,1,0,0,-5]];perimeter=orthogonalPerimeter;outlineConnect=0;targetShapes=umlLifeline;portConstraint=eastwest;newEdgeStyle={&quot;curved&quot;:0,&quot;rounded&quot;:0};fillColor=#99CCFF;strokeColor=#6c8ebf;" vertex="1" parent="wYwZV7qoNed92lED-Qbd-4">
          <mxGeometry x="45" y="72" width="10" height="40" as="geometry" />
        </mxCell>
        <mxCell id="wYwZV7qoNed92lED-Qbd-17" value="" style="html=1;points=[[0,0,0,0,5],[0,1,0,0,-5],[1,0,0,0,5],[1,1,0,0,-5]];perimeter=orthogonalPerimeter;outlineConnect=0;targetShapes=umlLifeline;portConstraint=eastwest;newEdgeStyle={&quot;curved&quot;:0,&quot;rounded&quot;:0};fillColor=#99CCFF;strokeColor=#6c8ebf;" vertex="1" parent="wYwZV7qoNed92lED-Qbd-4">
          <mxGeometry x="45" y="213" width="10" height="40" as="geometry" />
        </mxCell>
        <mxCell id="wYwZV7qoNed92lED-Qbd-7" value="Open the app" style="html=1;verticalAlign=bottom;endArrow=block;curved=0;rounded=0;fillColor=#f8cecc;strokeColor=#b85450;" edge="1" parent="1">
          <mxGeometry x="-0.0045" width="80" relative="1" as="geometry">
            <mxPoint x="143.99666666666656" y="132" as="sourcePoint" />
            <mxPoint x="390.8299999999999" y="132" as="targetPoint" />
            <mxPoint as="offset" />
          </mxGeometry>
        </mxCell>
        <mxCell id="wYwZV7qoNed92lED-Qbd-10" value="Display streaming" style="html=1;verticalAlign=bottom;endArrow=open;dashed=1;endSize=8;curved=0;rounded=0;" edge="1" parent="1">
          <mxGeometry relative="1" as="geometry">
            <mxPoint x="390.6700000000001" y="186" as="sourcePoint" />
            <mxPoint x="144.00333333333333" y="186" as="targetPoint" />
          </mxGeometry>
        </mxCell>
        <mxCell id="wYwZV7qoNed92lED-Qbd-13" value="Get streaming (patient id)" style="endArrow=classic;html=1;rounded=0;" edge="1" parent="1" source="wYwZV7qoNed92lED-Qbd-3">
          <mxGeometry x="0.0104" y="9" width="50" height="50" relative="1" as="geometry">
            <mxPoint x="395" y="136" as="sourcePoint" />
            <mxPoint x="641.5" y="136" as="targetPoint" />
            <mxPoint as="offset" />
          </mxGeometry>
        </mxCell>
        <mxCell id="wYwZV7qoNed92lED-Qbd-14" value="Success" style="html=1;verticalAlign=bottom;endArrow=open;dashed=1;endSize=8;curved=0;rounded=0;" edge="1" parent="1">
          <mxGeometry relative="1" as="geometry">
            <mxPoint x="641" y="173" as="sourcePoint" />
            <mxPoint x="400" y="173" as="targetPoint" />
          </mxGeometry>
        </mxCell>
        <mxCell id="wYwZV7qoNed92lED-Qbd-15" value="Send notification" style="html=1;verticalAlign=bottom;endArrow=open;dashed=1;endSize=8;curved=0;rounded=0;" edge="1" parent="1">
          <mxGeometry relative="1" as="geometry">
            <mxPoint x="390.6700000000001" y="254" as="sourcePoint" />
            <mxPoint x="144.00333333333333" y="254" as="targetPoint" />
          </mxGeometry>
        </mxCell>
        <mxCell id="wYwZV7qoNed92lED-Qbd-16" value="Autofill vital signs tables(cv data)" style="endArrow=classic;html=1;rounded=0;" edge="1" parent="1">
          <mxGeometry x="0.0104" y="9" width="50" height="50" relative="1" as="geometry">
            <mxPoint x="400" y="277" as="sourcePoint" />
            <mxPoint x="641.5" y="277" as="targetPoint" />
            <mxPoint as="offset" />
          </mxGeometry>
        </mxCell>
        <mxCell id="wYwZV7qoNed92lED-Qbd-18" value="Success" style="html=1;verticalAlign=bottom;endArrow=open;dashed=1;endSize=8;curved=0;rounded=0;" edge="1" parent="1">
          <mxGeometry relative="1" as="geometry">
            <mxPoint x="640" y="314" as="sourcePoint" />
            <mxPoint x="399" y="314" as="targetPoint" />
          </mxGeometry>
        </mxCell>
      </root>
    </mxGraphModel>
  </diagram>
</mxfile>
